<svg width="22" height="22" viewBox="0 0 22 22" fill="none" xmlns="http://www.w3.org/2000/svg">
<path d="M10.6476 10.25C9.36781 10.25 8.29952 9.80769 7.39996 8.90739C6.50037 8.00706 6.05818 6.93762 6.05818 5.65625C6.05818 4.37488 6.50037 3.30544 7.39996 2.40511C8.29952 1.50481 9.36781 1.0625 10.6476 1.0625C11.9274 1.0625 12.9956 1.50481 13.8952 2.40511C14.7948 3.30544 15.237 4.37488 15.237 5.65625C15.237 6.93762 14.7948 8.00706 13.8952 8.90739C12.9956 9.80769 11.9274 10.25 10.6476 10.25ZM10.6476 14.4375C11.8888 14.4375 13.2765 14.6152 14.8148 14.9798C16.3161 15.3356 17.6824 15.917 18.9187 16.7222C20.1196 17.5044 20.5452 18.2718 20.5452 19V20.9375H0.75V19C0.75 18.2718 1.17554 17.5044 2.37647 16.7222C3.61275 15.917 4.97902 15.3356 6.48035 14.9798C8.01863 14.6152 9.40633 14.4375 10.6476 14.4375Z" stroke="white" stroke-width="1.5"/>
</svg>
