<svg width="160" height="20" viewBox="0 0 160 20" fill="none" xmlns="http://www.w3.org/2000/svg">
<path d="M19.3486 19.7328H13.8V11.6099H5.58041V19.7328H0V0.280561H5.58041V8.00267H13.8V0.280561H19.3486V19.7328Z" fill="white"/>
<path d="M44.125 10.4075C44.125 12.3046 43.7063 13.9835 42.869 15.4442C42.0316 16.9049 40.8392 18.0316 39.2918 18.8243C37.7549 19.6081 36.0008 20 34.0293 20C32.0579 20 30.3091 19.6215 28.7828 18.8644C27.2565 18.0984 26.0642 17.0073 25.2056 15.5912C24.3577 14.175 23.9125 12.5495 23.8701 10.7148V9.61924C23.8701 7.7132 24.2835 6.03429 25.1102 4.5825C25.9476 3.1218 27.14 1.9951 28.6874 1.2024C30.2455 0.409708 32.0155 0.0133601 33.9976 0.0133601C35.9584 0.0133601 37.7072 0.405255 39.2441 1.18904C40.7809 1.97283 41.9733 3.09063 42.8213 4.54242C43.6798 5.9853 44.1144 7.64195 44.125 9.51236V10.4075ZM38.4492 9.59252C38.4492 7.65976 38.0623 6.19461 37.2886 5.19706C36.5254 4.1906 35.4284 3.68737 33.9976 3.68737C31.1994 3.68737 29.7208 5.4509 29.5618 8.97796L29.5459 10.4075C29.5459 12.3135 29.9222 13.7787 30.6747 14.8029C31.4273 15.8272 32.5455 16.3393 34.0293 16.3393C35.439 16.3393 36.5254 15.8361 37.2886 14.8297C38.0517 13.8232 38.4386 12.3759 38.4492 10.4876V9.59252Z" fill="white"/>
<path d="M48.6306 19.7328V0.280561H56.9456C59.9239 0.280561 62.1868 0.739256 63.7343 1.65665C65.2923 2.57404 66.0714 3.90559 66.0714 5.6513C66.0714 6.65776 65.7958 7.51726 65.2446 8.22979C64.6935 8.94233 63.8827 9.46782 62.8122 9.80628C64.0205 10.0735 64.9479 10.5723 65.5944 11.3026C66.241 12.033 66.5642 12.9236 66.5642 13.9746C66.5642 15.8807 65.8435 17.3146 64.402 18.2766C62.9711 19.2296 60.846 19.715 58.0267 19.7328H48.6306ZM54.211 11.4629V16.1256H57.8677C58.8746 16.1256 59.6483 15.9341 60.1889 15.5511C60.7294 15.1592 60.9997 14.6114 60.9997 13.9078C60.9997 12.2868 60.0405 11.4718 58.1221 11.4629H54.211ZM54.211 8.39011H57.1205C58.3394 8.38121 59.2085 8.19417 59.7278 7.82899C60.2472 7.46382 60.5069 6.92496 60.5069 6.21243C60.5069 5.39301 60.226 4.80517 59.6642 4.4489C59.1025 4.08372 58.1963 3.90114 56.9456 3.90114H54.211V8.39011Z" fill="white"/>
<path d="M90.8795 10.4075C90.8795 12.3046 90.4609 13.9835 89.6236 15.4442C88.7862 16.9049 87.5938 18.0316 86.0464 18.8243C84.5095 19.6081 82.7554 20 80.7839 20C78.8125 20 77.0637 19.6215 75.5374 18.8644C74.0111 18.0984 72.8187 17.0073 71.9602 15.5912C71.1123 14.175 70.6671 12.5495 70.6247 10.7148V9.61924C70.6247 7.7132 71.0381 6.03429 71.8648 4.5825C72.7021 3.1218 73.8945 1.9951 75.442 1.2024C77.0001 0.409708 78.7701 0.0133601 80.7521 0.0133601C82.713 0.0133601 84.4618 0.405255 85.9987 1.18904C87.5355 1.97283 88.7279 3.09063 89.5759 4.54242C90.4344 5.9853 90.8689 7.64195 90.8795 9.51236V10.4075ZM85.2037 9.59252C85.2037 7.65976 84.8169 6.19461 84.0431 5.19706C83.28 4.1906 82.183 3.68737 80.7521 3.68737C77.954 3.68737 76.4754 5.4509 76.3164 8.97796L76.3005 10.4075C76.3005 12.3135 76.6768 13.7787 77.4293 14.8029C78.1819 15.8272 79.3001 16.3393 80.7839 16.3393C82.1936 16.3393 83.28 15.8361 84.0431 14.8297C84.8063 13.8232 85.1931 12.3759 85.2037 10.4876V9.59252Z" fill="white"/>
<path d="M114.114 13.1463C114.04 14.5001 113.605 15.6981 112.81 16.7401C112.015 17.7733 110.897 18.5749 109.455 19.145C108.025 19.715 106.387 20 104.543 20C101.501 20 99.1055 19.1672 97.3566 17.5017C95.6078 15.8361 94.7334 13.4847 94.7334 10.4476V9.48564C94.7334 7.5796 95.1255 5.91405 95.9099 4.48898C96.7048 3.055 97.8442 1.95057 99.328 1.17568C100.812 0.391895 102.529 0 104.479 0C107.288 0 109.546 0.623469 111.252 1.87041C112.958 3.10844 113.928 4.81853 114.161 7.00067H108.597C108.555 5.81608 108.199 4.96549 107.532 4.4489C106.864 3.93231 105.846 3.67401 104.479 3.67401C103.091 3.67401 102.073 4.11044 101.427 4.9833C100.78 5.85616 100.441 7.25006 100.409 9.165V10.5411C100.409 12.6163 100.717 14.0993 101.331 14.99C101.957 15.8807 103.027 16.326 104.543 16.326C105.825 16.326 106.806 16.0721 107.484 15.5645C108.162 15.0568 108.523 14.2507 108.565 13.1463H114.114Z" fill="white"/>
<path d="M136.076 3.90114H129.128V19.7328H123.548V3.90114H116.727V0.280561H136.076V3.90114Z" fill="white"/>
<path d="M153.65 0.280561H159.231V19.7328H153.65V7.46827L145.335 19.7328H139.755V0.280561H145.335V12.5585L153.65 0.280561Z" fill="white"/>
</svg>
